Patient4_TMGait_0pt3_02_right_11_EMG.mot
version=1
nRows=13
nColumns=33
inDegrees=no
endheader
time	1LAddLong	2LGlutMax	3LGlutMed	4LIliopsoas	5LSemiMemb	6LBicFemLong	7LRecFem	8LVastMed	9LVastLat	10LGasMed	11LTibAnt	12lTibPost	13LPeroneusLong	14LSol	15LExtDigLong	16LFlexDigLong	17RAddLong	18RGlutMax	19RGlutMed	20RIliopsoas	21RSemiMemb	22RBicFemLong	23RRecFem	24RVastMed	25RVastLat	26RGasMed	27RTibAnt	28RTibPost	29RPeroneusLong	30RSol	31RExtDigLong	32RFlexDigLong
21.127	0.000153	-0.4509	0.059509	0.002441	0.049133	0.03006	-0.026703	-0.006714	0.060577	-0.11444	0.007019	0.15488	-0.23239	-0.62805	0.002899	0.00351	0.003357	0.15595	0.031128	-0.14221	0.003204	0.32913	0.076294	-0.13779	0.040894	-0.029907	0.20874	-0.006714	0.73181	0.10941	-0.002136	-0.036316
21.128	-0.005493	-0.41458	0.069885	-0.016937	0.046387	0.039368	0.00412	-0.002594	0.066376	0.012054	-0.006866	-0.168	-0.30991	-0.38528	-0.011597	0.2182	0.06073	0.13428	0.019531	0.009766	0.000916	0.071564	0.11551	-0.17807	0.007935	-0.018768	0.26459	-0.00885	2.0084	-0.008392	0.000153	-0.028076
21.129	-0.013123	-0.39871	0.053101	0.00885	0.014343	0.027924	-0.007019	-0.001526	0.06073	0.18387	0.02533	0.24384	-0.33737	-0.31433	0.010223	0.06073	0.12054	0.055695	0.008698	0.075531	-0.25909	-0.033417	0.091858	-0.27863	0.011444	0.010986	0.10742	-0.001068	1.9034	-0.13062	-0.005493	-0.022278
21.13	-0.01297	-0.39566	0.028839	-0.008087	-0.00824	0.001221	0.007019	-0.003967	0.064087	0.28824	0.011444	0.11505	-0.23575	0.27359	-0.001526	0.39261	0.11078	0.046082	-0.018921	0.1442	-0.50659	-0.10651	-0.00885	-0.15411	0.036011	0.029297	-0.15518	-0.002594	0.96664	-0.12772	-0.002899	-0.015259
21.131	-0.012665	-0.37125	0.050354	0.007477	-0.005646	0.014038	0.012665	-0.003052	0.075989	0.27908	-0.001068	-0.05127	0.054321	0.61279	0.040283	-1.2509	0.026703	-0.007782	0.1442	0.15427	-0.78705	-0.18997	-0.053253	-0.087738	0.059814	0.037689	-0.26337	0.001984	-2.1672	-0.064697	-0.001221	-0.014648
21.132	-0.009918	-0.35797	0.077057	0.00824	-0.001221	0.013733	0.022888	0.001984	0.067444	0.11887	-0.013428	0.1889	0.27618	1.0359	0.090027	0.55206	-0.09079	-0.014801	0.11231	0.098877	0.20493	-0.32181	-0.16159	0.17868	0.10834	-0.031738	-0.067291	-0.009308	-1.9798	0.16159	-0.009003	-0.016174
21.133	-0.004425	-0.31784	0.13031	0.023956	0.007324	0.011902	0.017853	0.000153	0.082092	0.1831	-0.024109	-0.042114	0.31311	1.0123	0.041962	-0.13504	-0.065613	-0.051117	0.062714	0.00061	0.71274	-0.47638	-0.14084	0.22156	0.087585	-0.028839	-0.20401	-0.013123	-1.2711	0.063171	-0.002899	-0.016327
21.134	0.00061	-0.32028	0.10605	0.023651	0.002899	0.027771	0.026093	0.001526	0.08255	0.11108	-0.01236	-0.13489	0.20309	0.42419	-0.12238	0.2095	-0.005188	-0.13351	0.051422	-0.04303	0.4982	-0.3717	-0.055847	0.20889	0.076599	0.007629	-0.17899	-0.011902	-1.0429	-0.22766	-0.000153	-0.028839
21.135	-0.003967	-0.26291	0.083618	0.029297	0.005188	0.013428	0.00885	0.000763	0.087433	-0.09552	-0.007782	0.29297	0.082092	0.25604	-0.18494	-0.11902	-0.022278	-0.12238	0.10895	0.03006	0.16159	-0.25497	-0.03418	0.21545	0.074768	0.011597	-0.13382	-0.002289	0.16098	-0.06546	-0.001984	-0.018311
21.136	0.001221	-0.23041	0.078888	0.017548	0.000305	0.013885	0.017395	0.003357	0.10239	-0.15167	0.01297	0.030518	0.061188	-0.58518	-0.15457	0.1738	-0.01709	-0.11124	0.056458	0.03067	-0.00061	-0.19211	-0.00473	0.23331	0.37109	0.008698	-0.064545	0.005646	-0.29495	0.32211	-0.004578	-0.023193
21.137	-0.007019	-0.21271	0.075531	0.010071	0.011444	-0.009613	0.033264	0.002899	0.096283	-0.14313	0.006714	-0.017395	0.1152	-1.5796	-0.077667	-0.19409	0.000305	-0.086823	0.037231	0.068665	-0.18112	0.06546	0.018616	0.23346	0.57251	0.013428	-0.029602	0.002136	1.2341	0.28961	-0.002289	-0.026093
21.138	0.002747	-0.17746	0.082092	-0.003815	0.003662	-0.012665	0.025482	0.003204	0.087738	-0.12329	0.000763	-0.041809	0.14862	-0.78476	-0.03418	-0.013885	0.001984	-0.1564	0.039673	0.089417	-0.098267	0.30762	-0.051575	0.21439	0.52109	-0.000916	-0.023346	-0.00412	1.9991	0.089264	-0.004578	-0.022583
21.139	0.00412	-0.12253	0.074921	-0.000916	-0.006714	-0.016632	0.025635	0.005341	0.089111	-0.10193	-0.00351	-0.02243	0.053253	0.025024	-0.019379	-0.33447	0.00824	-0.16571	-0.065613	-0.023499	-0.054626	0.21942	-0.028381	0.092468	0.29159	-0.016327	0.048981	-0.001373	1.0616	0.16785	-0.002289	-0.025482
